<svg width="30" height="30" viewBox="0 0 30 30" fill="none" xmlns="http://www.w3.org/2000/svg">
<path fill-rule="evenodd" clip-rule="evenodd" d="M5.85797 10.6683C6.40732 10.119 7.1524 9.81039 7.92929 9.81039H22.0707C22.8476 9.81039 23.5927 10.119 24.142 10.6683C24.6914 11.2177 25 11.9627 25 12.7396V16.7799C25 17.5568 24.6914 18.3018 24.142 18.8512C23.5927 19.4005 22.8476 19.7091 22.0707 19.7091H20.0505C19.5484 19.7091 19.1414 19.3021 19.1414 18.8C19.1414 18.298 19.5484 17.891 20.0505 17.891H22.0707C22.3654 17.891 22.648 17.7739 22.8564 17.5655C23.0648 17.3572 23.1818 17.0746 23.1818 16.7799V12.7396C23.1818 12.4449 23.0648 12.1623 22.8564 11.9539C22.648 11.7456 22.3654 11.6285 22.0707 11.6285H7.92929C7.63461 11.6285 7.35199 11.7456 7.14362 11.9539C6.93524 12.1623 6.81818 12.4449 6.81818 12.7396V16.7799C6.81818 17.0746 6.93524 17.3572 7.14362 17.5655C7.35199 17.7739 7.63461 17.891 7.92929 17.891H9.94949C10.4516 17.891 10.8586 18.298 10.8586 18.8C10.8586 19.3021 10.4516 19.7091 9.94949 19.7091H7.92929C7.1524 19.7091 6.40732 19.4005 5.85797 18.8512C5.30862 18.3018 5 17.5568 5 16.7799V12.7396C5 11.9627 5.30862 11.2177 5.85797 10.6683Z" fill="#333333"/>
<path fill-rule="evenodd" clip-rule="evenodd" d="M9.89834 4.60795C10.4477 4.05861 11.1928 3.75 11.9697 3.75H18.0303C18.8072 3.75 19.5522 4.05861 20.1016 4.60795C20.6509 5.15728 20.9596 5.90234 20.9596 6.67921V10.7195C20.9596 11.2216 20.5525 11.6286 20.0505 11.6286C19.5484 11.6286 19.1414 11.2216 19.1414 10.7195V6.67921C19.1414 6.38454 19.0243 6.10193 18.8159 5.89356C18.6076 5.68519 18.325 5.56813 18.0303 5.56813H11.9697C11.675 5.56813 11.3924 5.68519 11.184 5.89356C10.9756 6.10193 10.8586 6.38454 10.8586 6.67921V10.7195C10.8586 11.2216 10.4515 11.6286 9.94946 11.6286C9.44738 11.6286 9.04037 11.2216 9.04037 10.7195V6.67921C9.04037 5.90234 9.34899 5.15728 9.89834 4.60795Z" fill="#333333"/>
<path fill-rule="evenodd" clip-rule="evenodd" d="M11.9697 15.6694C11.675 15.6694 11.3924 15.7865 11.184 15.9948C10.9756 16.2032 10.8586 16.4858 10.8586 16.7805V20.8208C10.8586 21.1155 10.9756 21.3981 11.184 21.6064C11.3924 21.8148 11.675 21.9319 11.9697 21.9319H18.0303C18.325 21.9319 18.6076 21.8148 18.8159 21.6064C19.0243 21.3981 19.1414 21.1155 19.1414 20.8208V16.7805C19.1414 16.4858 19.0243 16.2032 18.8159 15.9948C18.6076 15.7865 18.325 15.6694 18.0303 15.6694H11.9697ZM9.89834 14.7092C10.4477 14.1599 11.1928 13.8513 11.9697 13.8513H18.0303C18.8072 13.8513 19.5522 14.1599 20.1016 14.7092C20.6509 15.2586 20.9596 16.0036 20.9596 16.7805V20.8208C20.9596 21.5977 20.6509 22.3427 20.1016 22.8921C19.5522 23.4414 18.8072 23.75 18.0303 23.75H11.9697C11.1928 23.75 10.4477 23.4414 9.89834 22.8921C9.34899 22.3427 9.04037 21.5977 9.04037 20.8208V16.7805C9.04037 16.0036 9.34899 15.2586 9.89834 14.7092Z" fill="#333333"/>
</svg>
