<svg width="80" height="80" viewBox="0 0 80 80" fill="none" xmlns="http://www.w3.org/2000/svg">
<path fill-rule="evenodd" clip-rule="evenodd" d="M13.8877 12.4898C12.4563 12.4898 11.0836 13.0581 10.0715 14.0698C9.05944 15.0815 8.49084 16.4536 8.49084 17.8844V54.4014C8.49084 55.8321 9.05943 57.2042 10.0715 58.2159C11.0836 59.2276 12.4563 59.7959 13.8877 59.7959H38.1319C38.8197 59.7959 39.3773 60.3533 39.3773 61.0408C39.3773 61.7284 38.8197 62.2857 38.1319 62.2857H13.8877C11.7957 62.2857 9.78947 61.455 8.31024 59.9764C6.83102 58.4978 6 56.4924 6 54.4014V17.8844C6 15.7933 6.83102 13.7879 8.31024 12.3093C9.78947 10.8307 11.7957 10 13.8877 10H27.1722C27.5025 10 27.8192 10.1312 28.0528 10.3646L37.6514 19.9592H60.3834C62.4753 19.9592 64.4816 20.7899 65.9608 22.2685C67.44 23.7471 68.2711 25.7525 68.2711 27.8435V37.1388C68.2711 37.8263 67.7135 38.3837 67.0256 38.3837C66.3378 38.3837 65.7802 37.8263 65.7802 37.1388V27.8435C65.7802 26.4128 65.2116 25.0407 64.1995 24.029C63.1874 23.0173 61.8147 22.449 60.3834 22.449H37.1355C36.8052 22.449 36.4884 22.3178 36.2549 22.0844L26.6563 12.4898H13.8877Z" fill="#CCCCCC"/>
<path fill-rule="evenodd" clip-rule="evenodd" d="M59.0549 41.1224C50.801 41.1224 44.1099 47.8108 44.1099 56.0612C44.1099 64.3117 50.801 71 59.0549 71C67.3089 71 74 64.3117 74 56.0612C74 47.8108 67.3089 41.1224 59.0549 41.1224ZM55.5323 51.1316C55.1432 50.7427 54.5124 50.7427 54.1233 51.1316C53.7342 51.5206 53.7342 52.1512 54.1233 52.5401L57.6459 56.0612L54.1233 59.5823C53.7342 59.9712 53.7342 60.6018 54.1233 60.9907C54.5124 61.3797 55.1432 61.3797 55.5323 60.9907L59.0549 57.4696L62.5775 60.9907C62.9666 61.3797 63.5974 61.3797 63.9865 60.9907C64.3756 60.6018 64.3756 59.9712 63.9865 59.5823L60.4639 56.0612L63.9865 52.5401C64.3756 52.1512 64.3756 51.5206 63.9865 51.1316C63.5974 50.7427 62.9666 50.7427 62.5775 51.1316L59.0549 54.6527L55.5323 51.1316Z" fill="#CCCCCC"/>
</svg>
