<svg width="30" height="30" viewBox="0 0 30 30" fill="none" xmlns="http://www.w3.org/2000/svg">
<path fill-rule="evenodd" clip-rule="evenodd" d="M10.5506 7.43901C12.2312 6.46626 14.1846 6.07403 16.1098 6.32291C18.035 6.5718 19.8248 7.44794 21.2037 8.81602C22.5826 10.1841 23.474 11.9682 23.7411 13.8933C23.8097 14.3885 23.464 14.8456 22.9688 14.9143C22.4737 14.983 22.0166 14.6372 21.9479 14.1421C21.7353 12.6094 21.0257 11.1896 19.9287 10.1012C18.8317 9.0128 17.4083 8.3162 15.8777 8.11833C14.3471 7.92046 12.794 8.23224 11.4575 9.00584C10.5345 9.54007 9.7501 10.2741 9.15747 11.1476H11.0774C11.5773 11.1476 11.9826 11.5529 11.9826 12.0528C11.9826 12.5527 11.5773 12.958 11.0774 12.958H7.66557C7.65186 12.9583 7.63812 12.9583 7.62435 12.958H7.15503C6.65512 12.958 6.24987 12.5527 6.24987 12.0528V8.12296C6.24987 7.62304 6.65512 7.21778 7.15503 7.21778C7.65493 7.21778 8.06019 7.62304 8.06019 8.12296V9.58643C8.74472 8.72676 9.58754 7.99644 10.5506 7.43901Z" fill="#333333"/>
<path fill-rule="evenodd" clip-rule="evenodd" d="M7.03066 15.0857C7.52583 15.017 7.98292 15.3628 8.0516 15.8579C8.26419 17.3906 8.97382 18.8104 10.0708 19.8988C11.1678 20.9872 12.5912 21.6838 14.1218 21.8817C15.6524 22.0795 17.2055 21.7678 18.542 20.9942C19.465 20.4599 20.2494 19.7259 20.842 18.8524H18.9221C18.4222 18.8524 18.017 18.4471 18.017 17.9472C18.017 17.4473 18.4222 17.042 18.9221 17.042H22.3339C22.3476 17.0417 22.3614 17.0417 22.3752 17.042H22.8445C23.3444 17.042 23.7496 17.4473 23.7496 17.9472V21.877C23.7496 22.377 23.3444 22.7822 22.8445 22.7822C22.3446 22.7822 21.9393 22.377 21.9393 21.877V20.4136C21.2548 21.2732 20.412 22.0036 19.4489 22.561C17.7683 23.5337 15.8149 23.926 13.8897 23.6771C11.9645 23.4282 10.1747 22.5521 8.79578 21.184C7.41692 19.8159 6.52549 18.0318 6.25845 16.1067C6.18977 15.6115 6.5355 15.1544 7.03066 15.0857Z" fill="#333333"/>
</svg>
