<svg width="30" height="30" viewBox="0 0 30 30" fill="none" xmlns="http://www.w3.org/2000/svg">
<rect width="30" height="30" rx="15" fill="#F5F5F5"/>
<path fill-rule="evenodd" clip-rule="evenodd" d="M9.75 15C9.75 14.6778 10.0112 14.4167 10.3333 14.4167H19.6667C19.9888 14.4167 20.25 14.6778 20.25 15C20.25 15.3222 19.9888 15.5833 19.6667 15.5833H10.3333C10.0112 15.5833 9.75 15.3222 9.75 15Z" fill="#333333"/>
<path fill-rule="evenodd" clip-rule="evenodd" d="M15 9.75C15.3222 9.75 15.5833 10.0112 15.5833 10.3333V19.6667C15.5833 19.9888 15.3222 20.25 15 20.25C14.6778 20.25 14.4167 19.9888 14.4167 19.6667V10.3333C14.4167 10.0112 14.6778 9.75 15 9.75Z" fill="#333333"/>
</svg>
