<svg width="24" height="24" viewBox="0 0 24 24" fill="none" xmlns="http://www.w3.org/2000/svg">
<path d="M2.5 4C2.5 3.17157 3.17157 2.5 4 2.5H20C20.8284 2.5 21.5 3.17157 21.5 4V20C21.5 20.8284 20.8284 21.5 20 21.5H4C3.17157 21.5 2.5 20.8284 2.5 20V4Z" stroke="#CCCCCC"/>
<path fill-rule="evenodd" clip-rule="evenodd" d="M15.8935 9.35506C16.0355 9.49514 16.0355 9.72225 15.8935 9.86233L11.045 14.6449C10.903 14.785 10.6728 14.785 10.5307 14.6449L8.10651 12.2536C7.9645 12.1136 7.9645 11.8864 8.10651 11.7464C8.24852 11.6063 8.47876 11.6063 8.62077 11.7464L10.7879 13.884L15.3792 9.35506C15.5212 9.21498 15.7515 9.21498 15.8935 9.35506Z" fill="#CCCCCC"/>
</svg>
