<svg width="24" height="24" viewBox="0 0 24 24" fill="none" xmlns="http://www.w3.org/2000/svg">
<path d="M2 4C2 2.89543 2.89543 2 4 2H20C21.1046 2 22 2.89543 22 4V20C22 21.1046 21.1046 22 20 22H4C2.89543 22 2 21.1046 2 20V4Z" fill="#0077DD"/>
<path fill-rule="evenodd" clip-rule="evenodd" d="M15.8935 9.35506C16.0355 9.49514 16.0355 9.72225 15.8935 9.86233L11.045 14.6449C10.903 14.785 10.6728 14.785 10.5307 14.6449L8.10651 12.2536C7.9645 12.1136 7.9645 11.8864 8.10651 11.7464C8.24852 11.6063 8.47876 11.6063 8.62077 11.7464L10.7879 13.884L15.3792 9.35506C15.5212 9.21498 15.7515 9.21498 15.8935 9.35506Z" fill="white"/>
</svg>
