<svg width="24" height="24" viewBox="0 0 24 24" fill="none" xmlns="http://www.w3.org/2000/svg">
<path fill-rule="evenodd" clip-rule="evenodd" d="M8.3426 3C8.72131 3 9.02832 3.30996 9.02832 3.69231V4.84614H14.9715V3.69231C14.9715 3.30996 15.2785 3 15.6572 3C16.0359 3 16.3429 3.30996 16.3429 3.69231V4.84614H17.4857C18.1525 4.84614 18.7921 5.11359 19.2636 5.58964C19.7351 6.0657 20 6.71136 20 7.38461V18.4615C20 19.1348 19.7351 19.7804 19.2636 20.2565C18.7921 20.7326 18.1525 21 17.4857 21H6.51429C5.84746 21 5.20794 20.7326 4.73642 20.2565C4.2649 19.7804 4 19.1348 4 18.4615V7.38461C4 6.71136 4.2649 6.0657 4.73642 5.58964C5.20794 5.11359 5.84746 4.84614 6.51429 4.84614H7.65689V3.69231C7.65689 3.30996 7.96389 3 8.3426 3ZM7.65689 6.23076H6.51429C6.21118 6.23076 5.92049 6.35233 5.70616 6.56871C5.49184 6.7851 5.37143 7.07859 5.37143 7.38461V10.3846H18.6286V7.38461C18.6286 7.07859 18.5082 6.7851 18.2938 6.56871C18.0795 6.35233 17.7888 6.23076 17.4857 6.23076H16.3429V7.38462C16.3429 7.76697 16.0359 8.07693 15.6572 8.07693C15.2785 8.07693 14.9715 7.76697 14.9715 7.38462V6.23076H9.02832V7.38462C9.02832 7.76697 8.72131 8.07693 8.3426 8.07693C7.96389 8.07693 7.65689 7.76697 7.65689 7.38462V6.23076ZM18.6286 11.7692H5.37143V18.4615C5.37143 18.7676 5.49184 19.061 5.70616 19.2774C5.92049 19.4938 6.21118 19.6154 6.51429 19.6154H17.4857C17.7888 19.6154 18.0795 19.4938 18.2938 19.2774C18.5082 19.061 18.6286 18.7676 18.6286 18.4615V11.7692Z" fill="#666666"/>
</svg>
