<svg width="210" height="32" viewBox="0 0 210 32" fill="none" xmlns="http://www.w3.org/2000/svg">
<path d="M170.591 15.7543C169.947 15.7543 169.371 15.6644 168.876 15.4772C168.39 15.29 167.985 15.0429 167.656 14.7358C167.326 14.4138 167.079 14.0619 166.914 13.665C166.75 13.2606 166.667 12.8337 166.667 12.3994V11.9351C166.667 11.4932 166.75 11.0814 166.914 10.6844C167.079 10.2801 167.326 9.9206 167.656 9.61356C167.985 9.29155 168.39 9.04442 168.876 8.8572C169.371 8.66998 169.94 8.58012 170.591 8.58012C171.243 8.58012 171.805 8.66998 172.291 8.8572C172.786 9.04442 173.197 9.29904 173.527 9.61356C173.856 9.9206 174.104 10.2801 174.268 10.6844C174.433 11.0814 174.515 11.5007 174.515 11.9351V12.3994C174.515 12.8412 174.433 13.2606 174.268 13.665C174.104 14.0619 173.856 14.4138 173.527 14.7358C173.197 15.0429 172.786 15.29 172.291 15.4772C171.805 15.6644 171.243 15.7543 170.591 15.7543ZM170.591 10.3325C170.262 10.3325 169.97 10.3849 169.715 10.4823C169.476 10.5721 169.273 10.6994 169.109 10.8642C168.951 11.0214 168.839 11.1937 168.764 11.3884C168.689 11.5831 168.652 11.7853 168.652 11.98V12.3395C168.652 12.5342 168.689 12.7364 168.764 12.9311C168.839 13.1258 168.959 13.313 169.109 13.4777C169.273 13.635 169.476 13.7548 169.715 13.8597C169.97 13.9495 170.262 13.9945 170.591 13.9945C170.921 13.9945 171.205 13.9495 171.445 13.8597C171.7 13.7623 171.902 13.635 172.052 13.4777C172.216 13.313 172.336 13.1333 172.411 12.9311C172.486 12.7289 172.523 12.5342 172.523 12.3395V11.98C172.523 11.7853 172.486 11.5831 172.411 11.3884C172.336 11.1937 172.216 11.014 172.052 10.8642C171.894 10.6994 171.692 10.5721 171.445 10.4823C171.205 10.3849 170.921 10.3325 170.591 10.3325ZM176.837 8.07838H178.911V15.9715H176.837V8.07838ZM178.911 16.6604V23.4153H169.161V16.6604H171.22V18.3903H176.852V16.6604H178.911ZM176.852 21.7004V20.1053H171.22V21.7004H176.852ZM186.789 9.5237H190.099V11.2686H181.338V9.5237H184.715V7.87618H186.789V9.5237ZM193.327 11.9126H195.334V13.7249H193.327V17.6639H191.253V8.07838H193.327V11.9201V11.9126ZM183.554 18.3529H193.327V23.595H191.253V20.1053H183.562V18.3604L183.554 18.3529ZM185.749 17.5142C185.164 17.5142 184.648 17.4468 184.198 17.3195C183.749 17.1772 183.367 16.9899 183.06 16.7578C182.753 16.5182 182.513 16.2336 182.349 15.9191C182.184 15.597 182.101 15.2601 182.101 14.9006V14.3764C182.101 14.0169 182.184 13.6724 182.349 13.3579C182.513 13.0359 182.753 12.7663 183.06 12.5342C183.367 12.2945 183.749 12.1073 184.198 11.9725C184.648 11.8302 185.164 11.7553 185.749 11.7553C186.333 11.7553 186.834 11.8302 187.284 11.9725C187.748 12.1073 188.13 12.2945 188.437 12.5342C188.744 12.7663 188.984 13.0359 189.148 13.3579C189.313 13.6799 189.396 14.0169 189.396 14.3764V14.9006C189.396 15.2601 189.313 15.6045 189.148 15.9191C188.984 16.2411 188.744 16.5182 188.437 16.7578C188.13 16.9899 187.748 17.1772 187.284 17.3195C186.834 17.4542 186.325 17.5142 185.749 17.5142ZM185.749 13.3804C185.202 13.3804 184.782 13.5002 184.498 13.7398C184.213 13.972 184.071 14.2116 184.071 14.4663V14.7958C184.071 15.0504 184.213 15.2975 184.498 15.5371C184.782 15.7693 185.202 15.8816 185.749 15.8816C186.295 15.8816 186.715 15.7693 186.999 15.5371C187.284 15.2975 187.426 15.0504 187.426 14.7958V14.4663C187.426 14.2116 187.284 13.972 186.999 13.7398C186.715 13.5002 186.295 13.3804 185.749 13.3804ZM196.645 10.1977H199.872V8.16824H201.984V10.1977H205.062V11.98H201.984V13.2007C201.984 13.5227 202.007 13.8072 202.051 14.0768C202.096 14.3389 202.164 14.5936 202.246 14.8332C202.343 15.0653 202.471 15.29 202.628 15.5072C202.785 15.7244 202.973 15.9565 203.19 16.1961C203.332 16.3609 203.497 16.5406 203.684 16.7428C203.879 16.93 204.088 17.1247 204.291 17.3344C204.5 17.5291 204.71 17.7388 204.92 17.941C205.137 18.1357 205.354 18.3304 205.564 18.5176L204.231 19.9031C203.879 19.5736 203.527 19.2366 203.175 18.8996C202.823 18.5476 202.493 18.2106 202.186 17.8961C201.857 17.5591 201.58 17.267 201.362 17.0199C201.153 16.7653 201.025 16.5781 200.966 16.4433H200.936C200.861 16.6005 200.696 16.8177 200.456 17.1023C200.217 17.3868 199.955 17.6714 199.685 17.956C199.378 18.278 199.056 18.6075 198.726 18.9445C198.397 19.274 198 19.6484 197.543 20.0678L196.173 18.6674C197.071 17.8661 197.888 17.0723 198.614 16.2785C198.854 16.0014 199.056 15.7543 199.221 15.5222C199.385 15.29 199.52 15.0579 199.618 14.8332C199.715 14.5936 199.782 14.3464 199.812 14.0918C199.857 13.8297 199.88 13.5302 199.88 13.2007V11.98H196.652V10.1977H196.645ZM204.321 13.5451H207.009V8.07838H209.098V23.4003H207.009V15.3574H204.321V13.5451ZM159.703 8.15326H160.452V24.0593H159.703V8.15326ZM63.7274 8.37792H60.7094V25.25H63.7274V13.6125H67.0673V11.2012H63.7274V8.37792ZM105.327 11.2012H103.26V8.37792H100.242V16.9675H93.0457L92.9334 16.8252V10.7518H98.5873V8.33299H90.0802V17.619C90.0802 18.5925 90.8665 19.3863 91.825 19.3863C91.8325 19.3863 91.8475 19.3863 91.8625 19.3863H100.242V25.2126H103.26V13.6125H105.327V25.2126H108.353V8.37792H105.327V11.2012ZM129.486 8.33299H126.715V16.3534H129.486V13.4178H132.654V11.291H129.486V8.33299ZM68.0409 19.4912H76.3384V25.2126H79.3563V19.4912H87.6538V17.0723H68.0409V19.4912ZM77.8511 12.7963C79.2889 15.3499 82.3144 15.3349 82.3144 15.3349H86.7851V13.2306H83.3553C83.3553 13.2306 80.6593 13.3355 79.918 10.7593H86.7851V8.34048H68.9096V10.7593H75.7767C75.0353 13.328 72.3394 13.2306 72.3394 13.2306H68.9021V15.3349H73.3803C73.3803 15.3349 76.4058 15.3424 77.8436 12.7963H77.8511ZM150.686 21.6105V10.1453C150.686 10.1453 150.686 10.1153 150.686 10.1003C150.686 9.17922 149.99 8.43035 149.099 8.35546V8.34048H134.735V10.7593H147.923V21.6105H145.032V13.4253H142.269V21.618H139.775V13.4253H137.012V21.618H133.253V24.0293H152.963V21.618H150.686V21.6105ZM56.1937 8.75236C54.5612 7.95107 52.015 8.01098 52.015 8.01098C52.015 8.01098 49.4689 7.95856 47.8363 8.75236C47.8363 8.75236 44.9007 9.97302 44.8184 13.635C44.9007 17.3045 47.8363 18.5176 47.8363 18.5176C49.4614 19.3189 52.015 19.2665 52.015 19.2665C52.015 19.2665 54.5612 19.3189 56.1937 18.5176C56.1937 18.5176 59.1293 17.297 59.2117 13.635C59.1293 9.96553 56.1937 8.75236 56.1937 8.75236ZM54.4414 16.3085C53.4903 16.7428 52.015 16.7204 52.015 16.7204C52.015 16.7204 50.5322 16.7428 49.5812 16.3085C49.5812 16.3085 47.8738 15.642 47.8288 13.635C47.8738 11.6355 49.5812 10.9615 49.5812 10.9615C50.5248 10.5272 52.015 10.5497 52.015 10.5497C52.015 10.5497 53.4903 10.5272 54.4414 10.9615C54.4414 10.9615 56.1488 11.6355 56.1937 13.635C56.1488 15.642 54.4414 16.3085 54.4414 16.3085ZM129.493 19.4462C129.493 18.4802 128.722 17.6939 127.763 17.6864H112.104V19.9031H126.722V25.2425H129.493V19.4612V19.4462ZM112.157 12.5342C112.157 12.5342 112.157 13.8222 112.674 14.616C112.674 14.616 113.34 15.7768 114.913 16.271C115.699 16.5182 116.74 16.5631 118.163 16.5631C119.586 16.5631 120.619 16.5107 121.405 16.271C122.978 15.7768 123.652 14.616 123.652 14.616C124.169 13.8222 124.169 12.5342 124.169 12.5342C124.169 12.5342 124.169 11.5307 123.809 10.7444H125.285V8.3255H119.541V7H116.777V8.3255H111.034V10.7444H112.509C112.149 11.5307 112.149 12.5342 112.149 12.5342H112.157ZM121.331 13.5002C121.331 13.5002 121.024 14.0394 120.29 14.2715C119.923 14.3839 118.829 14.4138 118.17 14.4138C117.511 14.4138 116.5 14.3914 116.141 14.2715C115.407 14.0394 115.1 13.5002 115.1 13.5002C114.86 13.1258 114.86 12.5342 114.86 12.5342C114.86 12.5342 114.86 11.9351 115.1 11.5606C115.1 11.5606 115.407 11.0214 116.141 10.7893C116.508 10.6695 117.511 10.647 118.17 10.647C118.829 10.647 119.93 10.6695 120.29 10.7893C121.024 11.0214 121.331 11.5606 121.331 11.5606C121.57 11.9351 121.57 12.5342 121.57 12.5342C121.57 12.5342 121.57 13.1333 121.331 13.5002Z" fill="white"/>
<path d="M11.5907 3.83496L8.14404 5.59584L8.35805 6.01635L9.81857 5.2692L10.3254 6.26415L10.8548 5.99383L10.348 4.99887L11.8047 4.25547L11.5907 3.83496Z" fill="white"/>
<path d="M9.48798 3.97257C9.96856 4.2842 10.498 4.01387 10.498 4.01387L11.2827 3.61213L11.0949 3.24794L10.4904 3.55581C10.4904 3.55581 10.0286 3.81488 9.6682 3.43567L10.8734 2.81992L10.6556 2.39941L7.51685 4.00261L7.73085 4.42311L8.93606 3.80737C9.03368 4.32174 8.5531 4.54326 8.5531 4.54326L7.94862 4.85113L8.13635 5.21532L8.92105 4.81359C8.92105 4.81359 9.45419 4.54701 9.48047 3.97257H9.48798Z" fill="white"/>
<path d="M5.72611 6.24121L5.32438 6.76309L4.88885 6.42894L4.52466 6.89826L7.13031 8.90694L7.49451 8.43387L5.69608 7.04844L6.09781 6.53031L5.72611 6.24121Z" fill="white"/>
<path d="M4.04042 7.64969C3.72128 7.81113 3.42092 8.21287 3.42092 8.21287C3.42092 8.21287 3.10554 8.60334 3.0342 8.95252C3.0342 8.95252 2.869 9.557 3.42467 10.0038C4.00287 10.4281 4.54353 10.1127 4.54353 10.1127C4.86266 9.95123 5.16303 9.54949 5.16303 9.54949C5.16303 9.54949 5.47841 9.15902 5.54975 8.80984C5.54975 8.80984 5.71495 8.20536 5.15552 7.75482C4.58107 7.33055 4.03666 7.64593 4.03666 7.64593L4.04042 7.64969ZM4.99783 8.82111C4.95277 9.0201 4.7688 9.24912 4.7688 9.24912C4.7688 9.24912 4.59234 9.48566 4.41212 9.57952C4.41212 9.57952 4.10425 9.76725 3.78886 9.53447C3.48475 9.28667 3.58612 8.94125 3.58612 8.94125C3.63117 8.74226 3.81515 8.51323 3.81515 8.51323C3.81515 8.51323 3.98786 8.28045 4.16807 8.18283C4.16807 8.18283 4.47595 7.99511 4.79133 8.22789C5.09545 8.47569 4.99407 8.82111 4.99407 8.82111H4.99783Z" fill="white"/>
<path d="M17.019 1.55927V2.10743H16.6097V1.55927H16.0127V3.23379H14.5935L14.571 3.20751V2.02108H15.6861V1.55176H14.0078V3.36145C14.0078 3.55293 14.1617 3.70687 14.3532 3.70687C14.357 3.70687 14.3645 3.70687 14.3682 3.70687H16.0127V4.84449H16.6097V2.5805H17.019V4.84449H17.6159V1.55927H17.019Z" fill="white"/>
<path d="M26.9014 10.3287L28.6548 8.94329C28.6548 8.94329 28.6585 8.93953 28.6623 8.93953C28.805 8.8269 28.8312 8.62791 28.7374 8.48148L26.9803 6.25879L26.6123 6.55164L28.2268 8.59412L26.5673 9.90821L26.2143 9.46142L27.4646 8.47022L27.1267 8.0422L25.8727 9.03715L25.5685 8.65043L26.8226 7.65923L26.4847 7.23122L25.2306 8.22242L24.7726 7.64046L24.4009 7.93332L26.8151 10.982L27.183 10.6892L26.9052 10.3362L26.9014 10.3287Z" fill="white"/>
<path d="M24.3071 4.44559L23.7439 4.1715L23.9992 3.65338L23.5111 3.41309L22.8203 4.81729L23.3084 5.05758L23.56 4.5432L24.1231 4.82104L24.3071 4.44559Z" fill="white"/>
<path d="M23.0416 5.59912C23.1242 5.43017 23.0566 5.22367 22.8876 5.14107L20.1168 3.77441L19.9253 4.16489L22.5122 5.43768L22.0541 6.37256L22.5422 6.61285L23.0416 5.60288V5.59912Z" fill="white"/>
<path d="M20.5669 2.88038C20.5669 2.88038 20.4543 3.10566 20.4805 3.28963C20.4805 3.28963 20.4993 3.55245 20.7321 3.77397C20.8485 3.8866 21.0325 3.98422 21.2803 4.10812C21.5318 4.23202 21.7195 4.31462 21.8772 4.3409C22.2001 4.38971 22.4179 4.24704 22.4179 4.24704C22.5793 4.14942 22.6882 3.9279 22.6882 3.9279C22.6882 3.9279 22.7746 3.75144 22.7783 3.58249L23.0411 3.71014L23.2476 3.28588L22.2339 2.78652L22.3465 2.55374L21.8585 2.31345L21.7421 2.54623L20.7283 2.04688L20.5181 2.46738L20.7809 2.59879C20.6495 2.70392 20.5631 2.88038 20.5631 2.88038H20.5669ZM22.1063 3.84906C22.1063 3.84906 22.0049 3.91664 21.8547 3.89411C21.7796 3.88285 21.5844 3.78899 21.468 3.73267C21.3516 3.67635 21.1751 3.58624 21.1226 3.53368C21.0137 3.42855 21.0062 3.3084 21.0062 3.3084C20.9949 3.22205 21.0475 3.11692 21.0475 3.11692C21.0475 3.11692 21.1 3.01179 21.1751 2.96674C21.1751 2.96674 21.2765 2.89916 21.4267 2.92168C21.5018 2.93295 21.682 3.01555 21.7984 3.07562C21.9148 3.13194 22.1063 3.23331 22.1626 3.28588C22.2715 3.391 22.279 3.51115 22.279 3.51115C22.2902 3.5975 22.2377 3.70263 22.2377 3.70263C22.2377 3.70263 22.1851 3.80776 22.11 3.85281L22.1063 3.84906Z" fill="white"/>
<path d="M2.75109 18.1275L2.6422 17.1776L1.67353 16.9411L1.63599 16.6182L3.84741 17.2189C3.99009 17.2564 4.15529 17.309 4.18908 17.1213H4.2041L4.27168 17.7145L2.43195 18.7207C2.22545 18.8333 2.02646 18.9235 1.92884 19.1525L1.86501 18.5855L2.75109 18.1237V18.1275ZM3.92251 17.508L2.93131 17.2452L3.01766 17.9848L3.92251 17.508Z" fill="white"/>
<path d="M4.11839 19.4598C4.28359 19.411 4.55392 19.3471 4.56518 19.1406H4.5802L4.79797 19.8277H4.78295C4.65905 19.6738 4.40374 19.7789 4.23854 19.8277L2.18856 20.4697C1.80559 20.5899 1.50898 20.4172 1.33252 19.9704V19.9516C1.69671 20.1731 1.90697 20.1506 2.29744 20.0267L4.12215 19.4523L4.11839 19.4598Z" fill="white"/>
<path d="M5.06438 23.6053C4.35102 23.8981 3.58884 23.5227 3.29974 22.8243C3.0144 22.1297 3.26971 21.3413 3.98683 21.0447C4.65138 20.7706 5.44735 21.116 5.73269 21.8594C6.04056 22.5953 5.69515 23.3425 5.06438 23.6053ZM4.18206 21.4314C3.69022 21.6341 3.33354 22.1898 3.55881 22.738C3.78033 23.2711 4.30596 23.4476 4.82784 23.2336C5.33846 23.0233 5.6989 22.4902 5.46987 21.9383C5.24835 21.3938 4.71145 21.2136 4.18206 21.4314Z" fill="white"/>
<path d="M6.2808 26.4881L6.45726 26.3116C6.18318 26.3492 5.90159 26.1952 5.71386 26.0075C5.5374 25.831 5.40223 25.587 5.4135 25.3354C5.42852 25.0388 5.61249 24.8661 5.80397 24.6709L6.51733 23.9538C6.63748 23.8336 6.85149 23.6572 6.78015 23.4619L7.17813 23.8561L6.79142 24.2316L6.07805 24.9487C5.72137 25.3054 5.70635 25.6208 5.98419 25.8986C6.13437 26.0488 6.34838 26.1389 6.56239 26.1014C6.70131 26.0788 6.76513 26.0112 6.86275 25.9136L7.66623 25.1064C7.78637 24.9863 7.99663 24.806 7.92904 24.6071L8.32703 25.005L7.94031 25.3805L6.55863 26.7659L6.28455 26.4956L6.2808 26.4881Z" fill="white"/>
<path d="M11.1322 29.4098L11.2223 29.1883C10.9857 29.3272 10.6628 29.2934 10.4188 29.1921C10.186 29.0944 9.972 28.9217 9.88565 28.6852C9.78427 28.4036 9.88565 28.1708 9.99077 27.923L10.3775 26.9881C10.4413 26.8304 10.5727 26.5864 10.4301 26.4287L10.9444 26.6427L10.7304 27.1346L10.3437 28.0694C10.1522 28.535 10.2573 28.8316 10.6178 28.9818C10.813 29.0644 11.0458 29.0644 11.2298 28.948C11.3499 28.8729 11.3837 28.7828 11.4363 28.6589L11.8718 27.6039C11.9356 27.4462 12.0633 27.1984 11.9244 27.0407L12.4425 27.2585L12.2285 27.7541L11.4851 29.5525L11.1284 29.4061L11.1322 29.4098Z" fill="white"/>
<path d="M15.54 28.2421L15.296 30.3522C15.0369 30.232 14.9355 30.0931 14.7966 29.8603L13.6965 28.0732L13.4713 30.0105L13.2009 29.9805L13.43 27.9981C13.4562 27.7878 13.4713 27.6376 13.291 27.5062V27.4912L13.8392 27.555C13.8467 27.6076 13.8617 27.6264 13.8843 27.6602L13.9293 27.7428L15.1045 29.6388L15.2697 28.2121C15.2922 28.0018 15.3147 27.8366 15.1308 27.7015L15.6001 27.754L15.54 28.2421Z" fill="white"/>
<path d="M16.7979 30.2367L16.7003 28.2768C16.6928 28.1041 16.704 27.8263 16.5088 27.7587L17.0607 27.7324L17.087 28.2543L17.1846 30.2142L16.8016 30.2329L16.7979 30.2367Z" fill="white"/>
<path d="M28.1774 23.4775L26.4878 22.4826C26.3376 22.3925 26.1124 22.231 25.9509 22.3587L26.2325 21.8818L26.6831 22.1484L28.3726 23.1434L28.1774 23.4775Z" fill="white"/>
<path d="M19.5535 27.956C19.5911 27.6706 19.6437 27.3402 19.3959 27.3027V27.2877L19.9403 27.1562L19.5686 29.9271C19.272 29.8182 19.1781 29.807 19.0054 29.5441L18.0893 28.1662C17.9766 27.9935 17.8678 27.7945 17.6763 27.7082V27.6932L18.2094 27.5655L18.2169 27.6105C18.2357 27.6931 18.3483 27.8546 18.3971 27.9297L19.3621 29.394L19.5498 27.9522L19.5535 27.956Z" fill="white"/>
<path d="M21.5396 28.6291L20.9126 27.345C20.8375 27.1911 20.7361 26.932 20.5334 26.9508L20.5259 26.9395L21.6147 26.4064C21.671 26.3801 21.7348 26.3613 21.7686 26.3125H21.7799L21.9751 26.7067H21.9639C21.7987 26.6429 21.6522 26.6955 21.4946 26.7743C21.3744 26.8306 21.258 26.8945 21.1604 26.9658L21.4683 27.6003L21.8738 27.4013C21.9301 27.375 21.9826 27.3488 22.0127 27.3075H22.0239L22.2004 27.6641H22.1929C22.0915 27.5966 21.9489 27.6716 21.8437 27.7205L21.5922 27.8444L21.9864 28.6516L22.4407 28.4789C22.6735 28.3888 22.8762 28.2048 22.9701 27.972L22.9814 27.9645L23.0452 28.4864L21.7761 29.1059L21.5471 28.6253L21.5396 28.6291Z" fill="white"/>
<path d="M24.2992 27.615L23.0977 26.0756C22.9888 25.9367 22.8424 25.7039 22.6472 25.7677L22.6396 25.7565L23.3493 25.2008C23.751 24.8854 24.1302 24.9267 24.3442 25.2008C24.5507 25.4636 24.4794 25.8503 24.2804 26.0981L25.1327 26.3009C25.3805 26.3572 25.6883 26.3647 25.9399 26.3422L25.6658 26.5562C25.5044 26.6801 25.3805 26.7176 25.204 26.6763L24.4869 26.5111L23.8862 26.3046C24.0964 26.0831 24.2879 25.7565 24.0701 25.4749C23.9012 25.2609 23.6196 25.2797 23.4243 25.4449C23.3568 25.5012 23.3004 25.5612 23.2404 25.6251L24.6108 27.3784L24.3067 27.615H24.2992Z" fill="white"/>
<path d="M25.8723 23.3465C25.662 23.3653 25.4443 23.4892 25.3129 23.6544C25.1739 23.8196 25.0651 24.0824 25.2678 24.2513C25.6695 24.5817 26.4918 23.568 27.0324 24.0148C27.3478 24.2701 27.3704 24.8408 26.9949 25.2951C26.8485 25.4753 26.6758 25.6293 26.4768 25.7457L26.0412 25.5316C26.3341 25.4791 26.6232 25.3176 26.8109 25.0924C26.9498 24.9234 27.055 24.5893 26.8485 24.4241C26.3904 24.0486 25.647 25.1224 25.0238 24.6118C24.6558 24.3077 24.8248 23.8158 25.1214 23.4591C25.2415 23.3127 25.3842 23.1813 25.5419 23.0762L25.8723 23.3503V23.3465Z" fill="white"/>
<path d="M30.0922 18.3858L29.0184 18.2318L27.9259 18.7087C27.7456 18.7838 27.6142 18.8401 27.4866 19.0053L27.5692 18.4458L28.7519 17.939L28.1211 17.372C28.0385 17.2932 27.8695 17.1843 27.7381 17.3758H27.7231L27.817 16.7188L29.0747 17.8414L30.1485 17.9953L30.0922 18.3783V18.3858Z" fill="white"/>
<path d="M26.6266 21.2596L26.9757 21.5299V21.5187C26.9194 21.3723 26.9457 21.1958 27.002 21.0456L27.1259 20.734L29.1947 21.5487L29.3336 21.1883L27.2648 20.3735L27.3887 20.0582C27.4338 19.9418 27.5089 19.8066 27.6478 19.8104V19.7991L27.2986 19.54L26.6228 21.2596H26.6266Z" fill="white"/>
<path d="M15.9944 0C7.16367 0 0 7.16367 0 15.9906C0 24.8176 7.16367 32 15.9944 32C24.8251 32 32.0038 24.8363 32.0038 15.9906C32.0038 7.1449 24.8363 0 15.9944 0ZM15.9944 31.5269C7.42649 31.5269 0.473073 24.5735 0.473073 15.9906C0.473073 7.40772 7.42649 0.473073 15.9944 0.473073C24.5622 0.473073 31.5269 7.42649 31.5269 15.9906C31.5269 24.5547 24.5735 31.5269 15.9944 31.5269Z" fill="white"/>
<path d="M3.85573 13.3585C3.85573 13.5951 3.66425 13.7903 3.42396 13.7903C3.18367 13.7903 2.99219 13.5988 2.99219 13.3585C2.99219 13.1182 3.18367 12.9268 3.42396 12.9268C3.66425 12.9268 3.85573 13.122 3.85573 13.3585Z" fill="white"/>
<path d="M29.0757 13.3585C29.0757 13.5951 28.8842 13.7903 28.6439 13.7903C28.4036 13.7903 28.2122 13.5988 28.2122 13.3585C28.2122 13.1182 28.4036 12.9268 28.6439 12.9268C28.8842 12.9268 29.0757 13.122 29.0757 13.3585Z" fill="white"/>
<path fill-rule="evenodd" clip-rule="evenodd" d="M26.398 15.9951C26.398 21.7433 21.7424 26.399 15.9941 26.399C10.2459 26.399 5.60156 21.7433 5.60156 15.9951C5.60156 10.2469 10.2534 5.60254 15.9941 5.60254C21.7349 5.60254 26.398 10.2582 26.398 15.9951ZM14.1475 7.11815L9.78467 13.5159C9.78467 13.5159 8.72589 14.8337 9.6007 16.5571L11.876 20.0638C11.876 20.0638 12.2664 20.7547 13.0661 20.7547H14.7745C14.7745 20.7547 14.5041 20.6495 14.3352 20.4055L11.7971 16.5008C11.7971 16.5008 11.3841 15.8362 11.4141 15.1641C11.4141 15.1641 11.4404 14.5747 11.7858 14.0153L14.1625 10.4484L16.9784 14.8112C16.9784 14.8112 17.2975 15.288 16.9596 15.671C16.9596 15.671 16.7531 15.885 16.2387 15.7198L17.2224 17.2367C17.2224 17.2367 17.3989 17.4807 17.6918 17.4807C17.6918 17.4807 17.8983 17.4807 18.0935 17.2479L18.8219 16.0652C18.8219 16.0652 19.355 15.3631 18.7956 14.2706L14.1475 7.11815ZM22.0542 16.9173L19.8916 20.1762H19.8841C19.5011 20.7695 18.9116 20.7544 18.9116 20.7544H16.55C16.0244 20.7544 15.664 20.1988 15.664 20.1988L13.0358 16.1626C12.4763 15.0663 13.0095 14.3642 13.0095 14.3642L13.7416 13.1853C13.9369 12.9525 14.1434 12.9525 14.1434 12.9525C14.4325 12.9525 14.6089 13.1965 14.6089 13.1965L15.5926 14.7134C15.0782 14.5444 14.8717 14.7584 14.8717 14.7584C14.5338 15.1414 14.853 15.6182 14.853 15.6182L16.8053 18.5731C16.8053 18.5731 17.0118 18.9035 17.2934 18.9335H18.1495C18.1495 18.9335 18.3973 18.926 18.6338 18.6219L20.0493 16.4142C20.3984 15.8548 20.4247 15.2653 20.4247 15.2653C20.5036 14.5594 19.9554 13.7259 19.9554 13.7259L15.8592 7.48963C15.6902 7.24559 15.4199 7.14046 15.4199 7.14046H17.1282C17.9279 7.14046 18.3184 7.83505 18.3184 7.83505L22.2382 13.8761C23.113 15.5995 22.0542 16.9173 22.0542 16.9173ZM13.3472 24.5655H12.998V22.3203L12.6038 22.5869V22.2527C12.6901 22.2152 12.9417 22.0237 13.0468 21.9374H13.3472V24.5655ZM14.9283 24.6267C15.6379 24.6267 15.6379 23.9509 15.6379 23.2638H15.6416L15.6416 23.2317C15.6418 22.5381 15.6419 21.8972 14.932 21.8972C14.5828 21.8972 14.2299 22.1149 14.2299 22.7044C14.2299 23.4253 14.6316 23.5342 14.8344 23.5342C15.0371 23.5342 15.2023 23.4703 15.2849 23.2864H15.2924C15.2924 23.9622 15.2699 24.3339 14.932 24.3339C14.7067 24.3339 14.6316 24.1349 14.6316 23.9396H14.2825C14.2712 24.3564 14.534 24.6267 14.9283 24.6267ZM14.9283 23.2413C14.6241 23.2413 14.5753 22.9597 14.5753 22.6969C14.5753 22.4604 14.6279 22.1525 14.9283 22.1525C15.2286 22.1525 15.2812 22.4604 15.2812 22.6969C15.2812 22.956 15.2324 23.2413 14.9283 23.2413ZM16.0424 21.9374H17.4053V22.2415L16.7032 24.5693H16.309L17.0449 22.2415H16.0424V21.9374ZM18.941 22.5986C18.941 22.9365 18.7194 23.0604 18.4041 23.0341L18.4003 23.0378V23.3457C18.8096 23.3457 18.9672 23.4358 18.9672 23.8601C18.9672 24.1379 18.8809 24.3332 18.5655 24.3332C18.2501 24.3332 18.2088 24.1041 18.2051 23.8451H17.8559C17.8559 23.8537 17.8557 23.8639 17.8555 23.8755C17.852 24.0656 17.8419 24.626 18.5355 24.626C19.0423 24.626 19.3164 24.3782 19.3164 23.8676C19.3164 23.4696 19.185 23.2519 18.772 23.1955V23.188C18.7788 23.1862 18.786 23.1842 18.7936 23.1822C18.9546 23.1391 19.2901 23.0493 19.2901 22.576C19.2901 22.1142 19.0236 21.8927 18.5768 21.8927C18.0849 21.8927 17.8709 22.1668 17.8972 22.6136H18.2464C18.2426 22.4033 18.2877 22.1856 18.5768 22.1856C18.8358 22.1856 18.941 22.3583 18.941 22.5986Z" fill="white"/>
</svg>
