<svg width="157" height="26" viewBox="0 0 157 26" fill="none" xmlns="http://www.w3.org/2000/svg">
<path d="M126.893 12.8593C126.391 12.8593 125.942 12.7893 125.557 12.6435C125.178 12.4977 124.863 12.3052 124.606 12.066C124.349 11.8152 124.157 11.541 124.029 11.2318C123.9 10.9168 123.836 10.5843 123.836 10.246V9.88433C123.836 9.54016 123.9 9.21933 124.029 8.91016C124.157 8.59516 124.349 8.31516 124.606 8.07599C124.863 7.82516 125.178 7.63266 125.557 7.48683C125.942 7.34099 126.385 7.27099 126.893 7.27099C127.4 7.27099 127.838 7.34099 128.217 7.48683C128.602 7.63266 128.923 7.83099 129.179 8.07599C129.436 8.31516 129.629 8.59516 129.757 8.91016C129.885 9.21933 129.949 9.54599 129.949 9.88433V10.246C129.949 10.5902 129.885 10.9168 129.757 11.2318C129.629 11.541 129.436 11.8152 129.179 12.066C128.923 12.3052 128.602 12.4977 128.217 12.6435C127.838 12.7893 127.4 12.8593 126.893 12.8593ZM126.893 8.63599C126.636 8.63599 126.409 8.67683 126.21 8.75266C126.024 8.82266 125.866 8.92183 125.738 9.05016C125.615 9.17266 125.528 9.30683 125.469 9.45849C125.411 9.61016 125.382 9.76766 125.382 9.91933V10.1993C125.382 10.351 125.411 10.5085 125.469 10.6602C125.528 10.8118 125.621 10.9577 125.738 11.086C125.866 11.2085 126.024 11.3018 126.21 11.3835C126.409 11.4535 126.636 11.4885 126.893 11.4885C127.149 11.4885 127.371 11.4535 127.558 11.3835C127.756 11.3077 127.914 11.2085 128.03 11.086C128.159 10.9577 128.252 10.8177 128.31 10.6602C128.369 10.5027 128.398 10.351 128.398 10.1993V9.91933C128.398 9.76766 128.369 9.61016 128.31 9.45849C128.252 9.30683 128.159 9.16683 128.03 9.05016C127.908 8.92183 127.75 8.82266 127.558 8.75266C127.371 8.67683 127.149 8.63599 126.893 8.63599ZM131.758 6.88016H133.374V13.0285H131.758V6.88016ZM133.374 13.5652V18.8268H125.779V13.5652H127.383V14.9127H131.769V13.5652H133.374ZM131.769 17.491V16.2485H127.383V17.491H131.769ZM139.51 8.00599H142.089V9.36516H135.264V8.00599H137.894V6.72266H139.51V8.00599ZM144.603 9.86683H146.166V11.2785H144.603V14.3468H142.987V6.88016H144.603V9.87266V9.86683ZM136.99 14.8835H144.603V18.9668H142.987V16.2485H136.996V14.8893L136.99 14.8835ZM138.699 14.2302C138.244 14.2302 137.842 14.1777 137.492 14.0785C137.142 13.9677 136.844 13.8218 136.605 13.641C136.366 13.4543 136.179 13.2327 136.051 12.9877C135.923 12.7368 135.859 12.4743 135.859 12.1943V11.786C135.859 11.506 135.923 11.2377 136.051 10.9927C136.179 10.7418 136.366 10.5318 136.605 10.351C136.844 10.1643 137.142 10.0185 137.492 9.91349C137.842 9.80266 138.244 9.74433 138.699 9.74433C139.154 9.74433 139.545 9.80266 139.895 9.91349C140.257 10.0185 140.554 10.1643 140.794 10.351C141.033 10.5318 141.219 10.7418 141.348 10.9927C141.476 11.2435 141.54 11.506 141.54 11.786V12.1943C141.54 12.4743 141.476 12.7427 141.348 12.9877C141.219 13.2385 141.033 13.4543 140.794 13.641C140.554 13.8218 140.257 13.9677 139.895 14.0785C139.545 14.1835 139.149 14.2302 138.699 14.2302ZM138.699 11.0102C138.274 11.0102 137.947 11.1035 137.725 11.2902C137.504 11.471 137.393 11.6577 137.393 11.856V12.1127C137.393 12.311 137.504 12.5035 137.725 12.6902C137.947 12.871 138.274 12.9585 138.699 12.9585C139.125 12.9585 139.452 12.871 139.674 12.6902C139.895 12.5035 140.006 12.311 140.006 12.1127V11.856C140.006 11.6577 139.895 11.471 139.674 11.2902C139.452 11.1035 139.125 11.0102 138.699 11.0102ZM147.187 8.53099H149.701V6.95016H151.346V8.53099H153.744V9.91933H151.346V10.8702C151.346 11.121 151.364 11.3427 151.399 11.5527C151.434 11.7568 151.486 11.9552 151.55 12.1418C151.626 12.3227 151.725 12.4977 151.848 12.6668C151.97 12.836 152.116 13.0168 152.285 13.2035C152.396 13.3318 152.524 13.4718 152.67 13.6293C152.822 13.7752 152.985 13.9268 153.143 14.0902C153.306 14.2418 153.469 14.4052 153.633 14.5627C153.802 14.7143 153.971 14.866 154.134 15.0118L153.096 16.091C152.822 15.8343 152.548 15.5718 152.274 15.3093C151.999 15.0352 151.743 14.7727 151.504 14.5277C151.247 14.2652 151.031 14.0377 150.862 13.8452C150.699 13.6468 150.599 13.501 150.553 13.396H150.529C150.471 13.5185 150.343 13.6877 150.156 13.9093C149.969 14.131 149.765 14.3527 149.555 14.5743C149.316 14.8252 149.065 15.0818 148.809 15.3443C148.552 15.601 148.243 15.8927 147.887 16.2193L146.819 15.1285C147.519 14.5043 148.155 13.886 148.721 13.2677C148.908 13.0518 149.065 12.8593 149.194 12.6785C149.322 12.4977 149.427 12.3168 149.503 12.1418C149.579 11.9552 149.631 11.7627 149.654 11.5643C149.689 11.3602 149.707 11.1268 149.707 10.8702V9.91933H147.193V8.53099H147.187ZM153.166 11.1385H155.26V6.88016H156.888V18.8152H155.26V12.5502H153.166V11.1385ZM118.411 6.93849H118.994V19.3285H118.411V6.93849ZM43.651 7.11349H41.3002V20.256H43.651V11.191H46.2527V9.31266H43.651V7.11349ZM76.0552 9.31266H74.4452V7.11349H72.0944V13.8043H66.4885L66.401 13.6935V8.96266H70.8052V7.07849H64.1785V14.3118C64.1785 15.0702 64.791 15.6885 65.5377 15.6885C65.5435 15.6885 65.5552 15.6885 65.5669 15.6885H72.0944V20.2268H74.4452V11.191H76.0552V20.2268H78.4119V7.11349H76.0552V9.31266ZM94.8735 7.07849H92.7152V13.326H94.8735V11.0393H97.341V9.38266H94.8735V7.07849ZM47.011 15.7702H53.4744V20.2268H55.8252V15.7702H62.2885V13.886H47.011V15.7702ZM54.6527 10.5552C55.7727 12.5443 58.1294 12.5327 58.1294 12.5327H61.6119V10.8935H58.9402C58.9402 10.8935 56.8402 10.9752 56.2627 8.96849H61.6119V7.08433H47.6877V8.96849H53.0369C52.4594 10.9693 50.3594 10.8935 50.3594 10.8935H47.6819V12.5327H51.1702C51.1702 12.5327 53.5269 12.5385 54.6469 10.5552H54.6527ZM111.388 17.421V8.49016C111.388 8.49016 111.388 8.46683 111.388 8.45516C111.388 7.73766 110.845 7.15433 110.151 7.09599V7.08433H98.9627V8.96849H109.235V17.421H106.984V11.0452H104.831V17.4268H102.889V11.0452H100.736V17.4268H97.8077V19.3052H113.161V17.4268H111.388V17.421ZM37.7827 7.40516C36.511 6.78099 34.5277 6.82766 34.5277 6.82766C34.5277 6.82766 32.5444 6.78683 31.2727 7.40516C31.2727 7.40516 28.986 8.35599 28.9219 11.2085C28.986 14.0668 31.2727 15.0118 31.2727 15.0118C32.5385 15.636 34.5277 15.5952 34.5277 15.5952C34.5277 15.5952 36.511 15.636 37.7827 15.0118C37.7827 15.0118 40.0694 14.061 40.1335 11.2085C40.0694 8.35016 37.7827 7.40516 37.7827 7.40516ZM36.4177 13.291C35.6769 13.6293 34.5277 13.6118 34.5277 13.6118C34.5277 13.6118 33.3727 13.6293 32.6319 13.291C32.6319 13.291 31.3019 12.7718 31.2669 11.2085C31.3019 9.65099 32.6319 9.12599 32.6319 9.12599C33.3669 8.78766 34.5277 8.80516 34.5277 8.80516C34.5277 8.80516 35.6769 8.78766 36.4177 9.12599C36.4177 9.12599 37.7477 9.65099 37.7827 11.2085C37.7477 12.7718 36.4177 13.291 36.4177 13.291ZM94.8794 15.7352C94.8794 14.9827 94.2785 14.3702 93.5319 14.3643H81.3344V16.091H92.721V20.2502H94.8794V15.7468V15.7352ZM81.3752 10.351C81.3752 10.351 81.3752 11.3543 81.7777 11.9727C81.7777 11.9727 82.2969 12.8768 83.5219 13.2618C84.1344 13.4543 84.9452 13.4893 86.0535 13.4893C87.1619 13.4893 87.9669 13.4485 88.5794 13.2618C89.8044 12.8768 90.3294 11.9727 90.3294 11.9727C90.7319 11.3543 90.7319 10.351 90.7319 10.351C90.7319 10.351 90.7319 9.56933 90.4519 8.95683H91.601V7.07266H87.1269V6.04016H84.9744V7.07266H80.5002V8.95683H81.6494C81.3694 9.56933 81.3694 10.351 81.3694 10.351H81.3752ZM88.521 11.1035C88.521 11.1035 88.2819 11.5235 87.7102 11.7043C87.4244 11.7918 86.5727 11.8152 86.0594 11.8152C85.546 11.8152 84.7585 11.7977 84.4785 11.7043C83.9069 11.5235 83.6677 11.1035 83.6677 11.1035C83.481 10.8118 83.481 10.351 83.481 10.351C83.481 10.351 83.481 9.88433 83.6677 9.59266C83.6677 9.59266 83.9069 9.17266 84.4785 8.99183C84.7644 8.89849 85.546 8.88099 86.0594 8.88099C86.5727 8.88099 87.4302 8.89849 87.7102 8.99183C88.2819 9.17266 88.521 9.59266 88.521 9.59266C88.7077 9.88433 88.7077 10.351 88.7077 10.351C88.7077 10.351 88.7077 10.8177 88.521 11.1035Z" fill="#111111"/>
<path d="M9.07831 3.68604L6.43945 5.03421L6.6033 5.35616L7.72151 4.78412L8.10958 5.54589L8.5149 5.33892L8.12683 4.57715L9.24216 4.00799L9.07831 3.68604Z" fill="#005CA9"/>
<path d="M7.46911 3.7916C7.83706 4.03019 8.24237 3.82323 8.24237 3.82323L8.84316 3.51565L8.69943 3.23681L8.23662 3.47253C8.23662 3.47253 7.88305 3.67087 7.60709 3.38054L8.52983 2.90911L8.36311 2.58716L5.95996 3.8146L6.12381 4.13655L7.04655 3.66512C7.12129 4.05894 6.75334 4.22854 6.75334 4.22854L6.29054 4.46426L6.43427 4.74309L7.03505 4.43551C7.03505 4.43551 7.44324 4.23141 7.46336 3.7916H7.46911Z" fill="#005CA9"/>
<path d="M4.58881 5.52832L4.28123 5.92789L3.94778 5.67205L3.66895 6.03137L5.6639 7.56927L5.94273 7.20707L4.56581 6.14635L4.87339 5.74966L4.58881 5.52832Z" fill="#005CA9"/>
<path d="M3.29774 6.60701C3.0534 6.73061 2.82343 7.03819 2.82343 7.03819C2.82343 7.03819 2.58197 7.33715 2.52735 7.60448C2.52735 7.60448 2.40087 8.06729 2.82631 8.40936C3.26899 8.73419 3.68293 8.49273 3.68293 8.49273C3.92727 8.36912 4.15724 8.06154 4.15724 8.06154C4.15724 8.06154 4.3987 7.76259 4.45332 7.49525C4.45332 7.49525 4.5798 7.03244 4.15149 6.68749C3.71168 6.36267 3.29486 6.60413 3.29486 6.60413L3.29774 6.60701ZM4.03075 7.50387C3.99626 7.65623 3.85541 7.83157 3.85541 7.83157C3.85541 7.83157 3.7203 8.01267 3.58232 8.08454C3.58232 8.08454 3.34661 8.22827 3.10514 8.05004C2.8723 7.86032 2.94991 7.59586 2.94991 7.59586C2.98441 7.44351 3.12526 7.26816 3.12526 7.26816C3.12526 7.26816 3.25749 7.08994 3.39547 7.0152C3.39547 7.0152 3.63119 6.87147 3.87265 7.04969C4.10549 7.23941 4.02788 7.50387 4.02788 7.50387H4.03075Z" fill="#005CA9"/>
<path d="M13.2351 1.94349V2.36318H12.9218V1.94349H12.4647V3.22555H11.3781L11.3609 3.20543V2.29707H12.2146V1.93774H10.9297V3.32329C10.9297 3.46989 11.0475 3.58775 11.1941 3.58775C11.197 3.58775 11.2028 3.58775 11.2056 3.58775H12.4647V4.45875H12.9218V2.72538H13.2351V4.45875H13.6922V1.94349H13.2351Z" fill="#005CA9"/>
<path d="M20.8012 8.65791L22.1436 7.59719C22.1436 7.59719 22.1465 7.59432 22.1494 7.59432C22.2586 7.50808 22.2787 7.35573 22.2069 7.24362L20.8616 5.54187L20.5798 5.76609L21.8159 7.32985L20.5453 8.33596L20.2751 7.99388L21.2324 7.23499L20.9737 6.90729L20.0136 7.66905L19.7807 7.37297L20.7408 6.61409L20.4821 6.28638L19.522 7.04527L19.1713 6.59971L18.8867 6.82393L20.7351 9.15808L21.0168 8.93387L20.8041 8.66366L20.8012 8.65791Z" fill="#005CA9"/>
<path d="M18.8151 4.15355L18.3839 3.9437L18.5794 3.54701L18.2057 3.36304L17.6768 4.43813L18.0505 4.6221L18.243 4.22828L18.6742 4.441L18.8151 4.15355Z" fill="#005CA9"/>
<path d="M17.8459 5.03694C17.9091 4.90758 17.8574 4.74948 17.728 4.68624L15.6066 3.63989L15.46 3.93885L17.4405 4.91333L17.0898 5.6291L17.4635 5.81307L17.8459 5.03981V5.03694Z" fill="#005CA9"/>
<path d="M15.951 2.95529C15.951 2.95529 15.8648 3.12777 15.8849 3.26862C15.8849 3.26862 15.8993 3.46984 16.0775 3.63944C16.1666 3.72568 16.3074 3.80042 16.4972 3.89528C16.6898 3.99014 16.8335 4.05338 16.9542 4.0735C17.2014 4.11087 17.3682 4.00164 17.3682 4.00164C17.4918 3.9269 17.5751 3.7573 17.5751 3.7573C17.5751 3.7573 17.6412 3.6222 17.6441 3.49284L17.8453 3.59058L18.0034 3.26575L17.2273 2.88343L17.3135 2.70521L16.9398 2.52123L16.8507 2.69946L16.0746 2.31714L15.9136 2.63909L16.1148 2.7397C16.0142 2.82019 15.9481 2.95529 15.9481 2.95529H15.951ZM17.1296 3.69693C17.1296 3.69693 17.052 3.74868 16.937 3.73143C16.8795 3.72281 16.73 3.65094 16.6409 3.60782C16.5518 3.5647 16.4167 3.49571 16.3764 3.45547C16.2931 3.37498 16.2873 3.283 16.2873 3.283C16.2787 3.21688 16.3189 3.13639 16.3189 3.13639C16.3189 3.13639 16.3592 3.0559 16.4167 3.02141C16.4167 3.02141 16.4943 2.96967 16.6093 2.98691C16.6668 2.99554 16.8047 3.05878 16.8939 3.10477C16.983 3.14789 17.1296 3.2255 17.1727 3.26575C17.2561 3.34624 17.2618 3.43822 17.2618 3.43822C17.2704 3.50434 17.2302 3.58483 17.2302 3.58483C17.2302 3.58483 17.1899 3.66531 17.1324 3.69981L17.1296 3.69693Z" fill="#005CA9"/>
<path d="M2.31078 14.629L2.22742 13.9017L1.48578 13.7206L1.45703 13.4734L3.15016 13.9333C3.25939 13.9621 3.38587 14.0023 3.41174 13.8586H3.42324L3.47498 14.3128L2.06644 15.0832C1.90834 15.1694 1.75599 15.2384 1.68125 15.4137L1.63238 14.9797L2.31078 14.6261V14.629ZM3.20765 14.1547L2.44876 13.9534L2.51488 14.5197L3.20765 14.1547Z" fill="#005CA9"/>
<path d="M3.35754 15.6489C3.48402 15.6115 3.69099 15.5626 3.69962 15.4045H3.71112L3.87784 15.9306H3.86634C3.77148 15.8127 3.57601 15.8932 3.44953 15.9306L1.88001 16.4221C1.58681 16.5141 1.35971 16.3819 1.22461 16.0398V16.0254C1.50344 16.195 1.66442 16.1778 1.96337 16.0829L3.36042 15.6431L3.35754 15.6489Z" fill="#005CA9"/>
<path d="M4.08125 18.8226C3.53508 19.0468 2.95154 18.7593 2.7302 18.2247C2.51173 17.6929 2.7072 17.0892 3.25624 16.8621C3.76504 16.6523 4.37445 16.9167 4.59292 17.4859C4.82864 18.0493 4.56418 18.6214 4.08125 18.8226ZM3.40572 17.1582C3.02915 17.3134 2.75607 17.7389 2.92854 18.1585C3.09814 18.5667 3.50058 18.7018 3.90015 18.538C4.29109 18.377 4.56705 17.9688 4.3917 17.5463C4.2221 17.1294 3.81104 16.9915 3.40572 17.1582Z" fill="#005CA9"/>
<path d="M5.01316 21.03L5.14827 20.8949C4.93842 20.9237 4.72283 20.8058 4.5791 20.6621C4.444 20.527 4.34051 20.3401 4.34914 20.1475C4.36063 19.9205 4.50149 19.7882 4.64809 19.6387L5.19426 19.0897C5.28625 18.9977 5.4501 18.8626 5.39548 18.7131L5.70019 19.015L5.4041 19.3024L4.85793 19.8515C4.58485 20.1245 4.57335 20.366 4.78607 20.5787C4.90105 20.6937 5.0649 20.7627 5.22875 20.734C5.33511 20.7167 5.38398 20.665 5.45872 20.5902L6.07388 19.9722C6.16587 19.8802 6.32684 19.7422 6.2751 19.5899L6.5798 19.8946L6.28372 20.182L5.22588 21.2428L5.01604 21.0358L5.01316 21.03Z" fill="#005CA9"/>
<path d="M8.72765 23.2668L8.79664 23.0972C8.61554 23.2035 8.36832 23.1777 8.18148 23.1001C8.00325 23.0253 7.8394 22.8931 7.77329 22.712C7.69567 22.4964 7.77329 22.3182 7.85378 22.1285L8.14986 21.4127C8.19872 21.292 8.29934 21.1051 8.1901 20.9844L8.58392 21.1482L8.42007 21.5248L8.12399 22.2406C7.97738 22.597 8.05787 22.8241 8.33383 22.9391C8.48331 23.0023 8.66153 23.0023 8.80239 22.9132C8.89437 22.8557 8.92024 22.7867 8.96049 22.6919L9.29394 21.8841C9.34281 21.7634 9.44054 21.5737 9.33418 21.4529L9.73087 21.6197L9.56702 21.9991L8.99786 23.376L8.72477 23.2639L8.72765 23.2668Z" fill="#005CA9"/>
<path d="M12.1024 22.3728L11.9155 23.9883C11.7172 23.8963 11.6396 23.7899 11.5332 23.6117L10.691 22.2434L10.5185 23.7267L10.3115 23.7037L10.4869 22.1859C10.507 22.0249 10.5185 21.91 10.3805 21.8094V21.7979L10.8002 21.8467C10.806 21.887 10.8174 21.9013 10.8347 21.9272L10.8692 21.9904L11.7689 23.4421L11.8954 22.3498C11.9127 22.1888 11.9299 22.0623 11.7891 21.9588L12.1484 21.9991L12.1024 22.3728Z" fill="#005CA9"/>
<path d="M13.0651 23.8998L12.9904 22.3992C12.9846 22.267 12.9932 22.0543 12.8438 22.0025L13.2663 21.9824L13.2864 22.382L13.3612 23.8825L13.068 23.8969L13.0651 23.8998Z" fill="#005CA9"/>
<path d="M21.7779 18.7249L20.4843 17.9631C20.3693 17.8941 20.1968 17.7705 20.0732 17.8682L20.2888 17.5032L20.6338 17.7073L21.9273 18.469L21.7779 18.7249Z" fill="#005CA9"/>
<path d="M15.1756 22.1538C15.2043 21.9353 15.2446 21.6824 15.0548 21.6536V21.6421L15.4716 21.5415L15.1871 23.6629C14.96 23.5796 14.8881 23.571 14.7559 23.3697L14.0545 22.3148C13.9682 22.1825 13.8849 22.0302 13.7383 21.9641V21.9526L14.1465 21.8548L14.1522 21.8893C14.1666 21.9526 14.2528 22.0762 14.2902 22.1337L15.029 23.2548L15.1727 22.1509L15.1756 22.1538Z" fill="#005CA9"/>
<path d="M16.6961 22.6691L16.216 21.686C16.1585 21.5682 16.0809 21.3698 15.9257 21.3842L15.9199 21.3756L16.7535 20.9674C16.7967 20.9473 16.8455 20.9329 16.8714 20.8955H16.88L17.0295 21.1973H17.0209C16.8944 21.1485 16.7823 21.1887 16.6616 21.2491C16.5696 21.2922 16.4805 21.3411 16.4057 21.3957L16.6414 21.8815L16.9519 21.7291C16.995 21.709 17.0353 21.6889 17.0583 21.6573H17.0669L17.202 21.9304H17.1962C17.1186 21.8786 17.0094 21.9361 16.9289 21.9735L16.7363 22.0683L17.0381 22.6864L17.386 22.5541C17.5642 22.4851 17.7194 22.3443 17.7913 22.1661L17.7999 22.1603L17.8488 22.5599L16.8772 23.0342L16.7018 22.6662L16.6961 22.6691Z" fill="#005CA9"/>
<path d="M18.8086 21.893L17.8888 20.7145C17.8054 20.6081 17.6933 20.4299 17.5438 20.4788L17.5381 20.4701L18.0814 20.0447C18.389 19.8032 18.6793 19.8348 18.8431 20.0447C19.0012 20.2459 18.9466 20.542 18.7943 20.7317L19.4468 20.8869C19.6365 20.9301 19.8722 20.9358 20.0648 20.9186L19.855 21.0824C19.7314 21.1773 19.6365 21.206 19.5014 21.1744L18.9524 21.0479L18.4924 20.8898C18.6534 20.7202 18.8 20.4701 18.6333 20.2545C18.5039 20.0907 18.2884 20.1051 18.1389 20.2315C18.0871 20.2747 18.044 20.3207 17.998 20.3695L19.0472 21.7119L18.8144 21.893H18.8086Z" fill="#005CA9"/>
<path d="M20.0126 18.6246C19.8516 18.6389 19.6849 18.7338 19.5843 18.8603C19.4779 18.9868 19.3946 19.188 19.5498 19.3173C19.8574 19.5703 20.4869 18.7942 20.9009 19.1362C21.1423 19.3317 21.1596 19.7687 20.8721 20.1165C20.76 20.2545 20.6278 20.3723 20.4754 20.4614L20.142 20.2976C20.3662 20.2573 20.5875 20.1337 20.7313 19.9613C20.8376 19.8319 20.9181 19.5761 20.76 19.4496C20.4093 19.1621 19.8401 19.9842 19.363 19.5933C19.0813 19.3605 19.2106 18.9839 19.4377 18.7108C19.5297 18.5987 19.6389 18.4981 19.7597 18.4176L20.0126 18.6274V18.6246Z" fill="#005CA9"/>
<path d="M23.244 14.8266L22.4219 14.7087L21.5853 15.0738C21.4474 15.1313 21.3468 15.1744 21.249 15.3009L21.3123 14.8726L22.2178 14.4845L21.7348 14.0505C21.6716 13.9901 21.5422 13.9067 21.4416 14.0533H21.4301L21.502 13.5503L22.465 14.4098L23.2871 14.5276L23.244 14.8209V14.8266Z" fill="#005CA9"/>
<path d="M20.5908 17.027L20.8581 17.234V17.2254C20.815 17.1132 20.8351 16.9781 20.8782 16.8632L20.9731 16.6246L22.557 17.2483L22.6633 16.9724L21.0794 16.3486L21.1743 16.1071C21.2088 16.018 21.2663 15.9145 21.3726 15.9174V15.9088L21.1053 15.7104L20.5879 17.027H20.5908Z" fill="#005CA9"/>
<path d="M12.4508 0.75C5.68977 0.75 0.205078 6.23469 0.205078 12.9928C0.205078 19.7509 5.68977 25.25 12.4508 25.25C19.2118 25.25 24.708 19.7653 24.708 12.9928C24.708 6.22032 19.2204 0.75 12.4508 0.75ZM12.4508 24.8878C5.89099 24.8878 0.567275 19.5641 0.567275 12.9928C0.567275 6.42154 5.89099 1.1122 12.4508 1.1122C19.0105 1.1122 24.3429 6.43591 24.3429 12.9928C24.3429 19.5497 19.0192 24.8878 12.4508 24.8878Z" fill="#005CA9"/>
<path d="M3.15725 10.9773C3.15725 11.1584 3.01064 11.3079 2.82667 11.3079C2.6427 11.3079 2.49609 11.1613 2.49609 10.9773C2.49609 10.7933 2.6427 10.6467 2.82667 10.6467C3.01064 10.6467 3.15725 10.7962 3.15725 10.9773Z" fill="#005CA9"/>
<path d="M22.4658 10.9773C22.4658 11.1584 22.3192 11.3079 22.1353 11.3079C21.9513 11.3079 21.8047 11.1613 21.8047 10.9773C21.8047 10.7933 21.9513 10.6467 22.1353 10.6467C22.3192 10.6467 22.4658 10.7962 22.4658 10.9773Z" fill="#005CA9"/>
<path fill-rule="evenodd" clip-rule="evenodd" d="M20.4164 12.9964C20.4164 17.3973 16.8519 20.9618 12.451 20.9618C8.04999 20.9618 4.49414 17.3973 4.49414 12.9964C4.49414 8.5954 8.05574 5.03955 12.451 5.03955C16.8462 5.03955 20.4164 8.60402 20.4164 12.9964ZM11.0371 6.19995L7.69684 11.0982C7.69684 11.0982 6.88621 12.1072 7.55598 13.4266L9.29797 16.1115C9.29797 16.1115 9.59693 16.6404 10.2092 16.6404H11.5171C11.5171 16.6404 11.3102 16.5599 11.1808 16.3731L9.23761 13.3835C9.23761 13.3835 8.9214 12.8747 8.9444 12.3602C8.9444 12.3602 8.96452 11.9089 9.22898 11.4805L11.0486 8.7497L13.2045 12.09C13.2045 12.09 13.4489 12.455 13.1901 12.7482C13.1901 12.7482 13.032 12.9121 12.6382 12.7856L13.3914 13.9469C13.3914 13.9469 13.5265 14.1338 13.7507 14.1338C13.7507 14.1338 13.9088 14.1338 14.0583 13.9556L14.6159 13.0501C14.6159 13.0501 15.0241 12.5125 14.5958 11.676L11.0371 6.19995ZM17.0907 13.7024L15.4349 16.1976H15.4292C15.136 16.6517 14.6847 16.6402 14.6847 16.6402H12.8766C12.4741 16.6402 12.1982 16.2148 12.1982 16.2148L10.186 13.1246C9.75764 12.2853 10.1658 11.7477 10.1658 11.7477L10.7264 10.8451C10.8759 10.6669 11.034 10.6669 11.034 10.6669C11.2553 10.6669 11.3904 10.8537 11.3904 10.8537L12.1435 12.0151C11.7497 11.8857 11.5916 12.0496 11.5916 12.0496C11.3329 12.3428 11.5773 12.7078 11.5773 12.7078L13.072 14.9701C13.072 14.9701 13.2301 15.2231 13.4457 15.2461H14.1011C14.1011 15.2461 14.2908 15.2403 14.4719 15.0075L15.5557 13.3172C15.823 12.8889 15.8431 12.4376 15.8431 12.4376C15.9035 11.8972 15.4838 11.259 15.4838 11.259L12.3476 6.48438C12.2183 6.29753 12.0113 6.21704 12.0113 6.21704H13.3192C13.9315 6.21704 14.2305 6.74884 14.2305 6.74884L17.2315 11.374C17.9013 12.6935 17.0907 13.7024 17.0907 13.7024ZM10.4246 19.5581H10.1573V17.8391L9.85547 18.0432V17.7874C9.92158 17.7586 10.1142 17.612 10.1947 17.5459H10.4246V19.5581ZM11.6351 19.605C12.1784 19.605 12.1784 19.0875 12.1784 18.5615H12.1813L12.1813 18.5369C12.1814 18.0058 12.1816 17.5151 11.638 17.5151C11.3707 17.5151 11.1005 17.6819 11.1005 18.1332C11.1005 18.6851 11.408 18.7685 11.5633 18.7685C11.7185 18.7685 11.845 18.7196 11.9082 18.5787H11.914C11.914 19.0962 11.8967 19.3807 11.638 19.3807C11.4655 19.3807 11.408 19.2284 11.408 19.0789H11.1407C11.1321 19.398 11.3333 19.605 11.6351 19.605ZM11.6351 18.5442C11.4023 18.5442 11.3649 18.3286 11.3649 18.1274C11.3649 17.9463 11.4052 17.7106 11.6351 17.7106C11.8651 17.7106 11.9053 17.9463 11.9053 18.1274C11.9053 18.3258 11.868 18.5442 11.6351 18.5442ZM12.4882 17.5459H13.5316V17.7787L12.9941 19.561H12.6923L13.2557 17.7787H12.4882V17.5459ZM14.7074 18.0521C14.7074 18.3109 14.5378 18.4057 14.2963 18.3856L14.2934 18.3885V18.6242C14.6068 18.6242 14.7275 18.6932 14.7275 19.018C14.7275 19.2307 14.6614 19.3802 14.4199 19.3802C14.1784 19.3802 14.1468 19.2048 14.1439 19.0065H13.8766C13.8766 19.0131 13.8765 19.0209 13.8763 19.0298C13.8737 19.1754 13.8659 19.6044 14.3969 19.6044C14.785 19.6044 14.9948 19.4147 14.9948 19.0237C14.9948 18.719 14.8942 18.5523 14.578 18.5092V18.5034C14.5832 18.502 14.5887 18.5005 14.5945 18.499C14.7178 18.466 14.9747 18.3972 14.9747 18.0349C14.9747 17.6813 14.7706 17.5117 14.4285 17.5117C14.052 17.5117 13.8881 17.7216 13.9082 18.0636H14.1756C14.1727 17.9027 14.2072 17.7359 14.4285 17.7359C14.6269 17.7359 14.7074 17.8682 14.7074 18.0521Z" fill="#005CA9"/>
<path d="M11.0372 6.19995L7.69696 11.0982C7.69696 11.0982 6.88633 12.1072 7.5561 13.4266L9.2981 16.1115C9.2981 16.1115 9.59705 16.6404 10.2093 16.6404H11.5173C11.5173 16.6404 11.3103 16.5599 11.1809 16.3731L9.23773 13.3835C9.23773 13.3835 8.92153 12.8747 8.94452 12.3602C8.94452 12.3602 8.96465 11.9089 9.22911 11.4805L11.0487 8.7497L13.2046 12.09C13.2046 12.09 13.449 12.455 13.1903 12.7482C13.1903 12.7482 13.0322 12.9121 12.6384 12.7856L13.3915 13.9469C13.3915 13.9469 13.5266 14.1338 13.7508 14.1338C13.7508 14.1338 13.9089 14.1338 14.0584 13.9556L14.6161 13.0501C14.6161 13.0501 15.0243 12.5125 14.5959 11.676L11.0372 6.19995Z" fill="#C49600"/>
<path d="M15.4349 16.1976L17.0907 13.7024C17.0907 13.7024 17.9013 12.6935 17.2315 11.374L14.2305 6.74884C14.2305 6.74884 13.9315 6.21704 13.3192 6.21704H12.0113C12.0113 6.21704 12.2183 6.29753 12.3476 6.48438L15.4838 11.259C15.4838 11.259 15.9035 11.8972 15.8431 12.4376C15.8431 12.4376 15.823 12.8889 15.5557 13.3172L14.4719 15.0075C14.2908 15.2403 14.1011 15.2461 14.1011 15.2461H13.4457C13.2301 15.2231 13.072 14.9701 13.072 14.9701L11.5772 12.7078C11.5772 12.7078 11.3329 12.3428 11.5916 12.0496C11.5916 12.0496 11.7497 11.8857 12.1435 12.0151L11.3904 10.8537C11.3904 10.8537 11.2553 10.6669 11.034 10.6669C11.034 10.6669 10.8759 10.6669 10.7264 10.8451L10.1658 11.7477C10.1658 11.7477 9.75764 12.2853 10.186 13.1246L12.1982 16.2148C12.1982 16.2148 12.4741 16.6402 12.8766 16.6402H14.6847C14.6847 16.6402 15.136 16.6517 15.4292 16.1976H15.4349Z" fill="#C49600"/>
</svg>
